<svg width="32" height="32" viewBox="0 0 32 32" fill="none" xmlns="http://www.w3.org/2000/svg">
<path d="M1 16C1 7.71573 7.71573 1 16 1C24.2843 1 31 7.71573 31 16C31 24.2843 24.2843 31 16 31C7.71573 31 1 24.2843 1 16Z" fill="#F74A4D"/>
<path d="M9.5 13.9981C8.67 13.9981 8 13.3283 8 12.4986C8 11.6688 8.67 10.9991 9.5 10.9991H12H10C9.17 10.9991 8.5 10.3293 8.5 9.49952C8.5 8.66979 9.17 8 10 8H11H19C22.31 8 25 10.6992 25 14.0181C25 16.7172 23.23 19.0065 20.78 19.7663C19.55 20.1561 18.63 21.1958 18.23 22.4354L17.31 25.2645C17.15 25.9143 16.49 26.0843 15.83 25.9643C14.78 25.7844 13.89 24.4348 13.89 21.9956L14 19.9962H8.5C7.67 19.9962 7 19.3264 7 18.4967C7 17.6669 7.67 16.9971 8.5 16.9971H11H9C8.17 16.9971 7.5 16.3274 7.5 15.4976C7.5 14.6679 8.17 13.9981 9 13.9981H11.5" fill="white"/>
</svg>
