<svg width="32" height="32" viewBox="0 0 32 32" fill="none" xmlns="http://www.w3.org/2000/svg">
<path d="M1.5 16C1.5 7.99187 7.99187 1.5 16 1.5C24.0081 1.5 30.5 7.99187 30.5 16C30.5 24.0081 24.0081 30.5 16 30.5C7.99187 30.5 1.5 24.0081 1.5 16Z" stroke="#909EBC"/>
<path d="M22.5 18.2948C23.33 18.2948 24 18.8902 24 19.6277C24 20.3653 23.33 20.9607 22.5 20.9607H20H22C22.83 20.9607 23.5 21.556 23.5 22.2936C23.5 23.0311 22.83 23.6265 22 23.6265H21H13C9.69 23.6265 7 21.2273 7 18.277C7 15.8778 8.77 13.8429 11.22 13.1676C12.45 12.821 13.37 11.8969 13.77 10.795L14.69 8.28022C14.85 7.70262 15.51 7.55157 16.17 7.6582C17.22 7.81814 18.11 9.01776 18.11 11.186L18 12.9632H23.5C24.33 12.9632 25 13.5585 25 14.2961C25 15.0337 24.33 15.629 23.5 15.629H21H23C23.83 15.629 24.5 16.2243 24.5 16.9619C24.5 17.6994 23.83 18.2948 23 18.2948H20.5" stroke="#ADB7CD" stroke-miterlimit="10" stroke-linecap="round" stroke-linejoin="round"/>
</svg>
