<svg width="24" height="24" viewBox="0 0 24 24" fill="none" xmlns="http://www.w3.org/2000/svg">
    <path
        d="M18.5 14.2948C19.33 14.2948 20 14.8902 20 15.6277C20 16.3653 19.33 16.9607 18.5 16.9607H16H18C18.83 16.9607 19.5 17.556 19.5 18.2936C19.5 19.0311 18.83 19.6265 18 19.6265H17H9C5.69 19.6265 3 17.2273 3 14.277C3 11.8778 4.77 9.8429 7.22 9.16756C8.45 8.82101 9.37 7.89685 9.77 6.79498L10.69 4.28022C10.85 3.70262 11.51 3.55157 12.17 3.6582C13.22 3.81814 14.11 5.01776 14.11 7.18597L14 8.96318H19.5C20.33 8.96318 21 9.55854 21 10.2961C21 11.0337 20.33 11.629 19.5 11.629H17H19C19.83 11.629 20.5 12.2243 20.5 12.9619C20.5 13.6994 19.83 14.2948 19 14.2948H16.5"
        stroke="currentColor" stroke-miterlimit="10" strokeLinecap="round" strokeLinejoin="round" />
</svg>