<svg width="32" height="32" viewBox="0 0 32 32" fill="none" xmlns="http://www.w3.org/2000/svg">
    <path d="M0 16C0 7.16344 7.16344 0 16 0C24.8366 0 32 7.16344 32 16C32 24.8366 24.8366 32 16 32C7.16344 32 0 24.8366 0 16Z" fill="currentColor"/>
    <path d="M22.4961 17.5995C23.3261 17.5995 23.9961 18.1949 23.9961 18.9324C23.9961 19.67 23.3261 20.2654 22.4961 20.2654H19.9961H21.9961C22.8261 20.2654 23.4961 20.8607 23.4961 21.5983C23.4961 22.3358 22.8261 22.9312 21.9961 22.9312H20.9961H12.9961C9.68609 22.9312 6.99609 20.532 6.99609 17.5817C6.99609 15.1825 8.76609 13.1476 11.2161 12.4722C12.4461 12.1257 13.3661 11.2015 13.7661 10.0997L14.6861 7.58491C14.8461 7.00731 15.5061 6.85625 16.1661 6.96288C17.2161 7.12283 18.1061 8.32245 18.1061 10.4907L17.9961 12.2679H23.4961C24.3261 12.2679 24.9961 12.8632 24.9961 13.6008C24.9961 14.3384 24.3261 14.9337 23.4961 14.9337H20.9961H22.9961C23.8261 14.9337 24.4961 15.529 24.4961 16.2666C24.4961 17.0041 23.8261 17.5995 22.9961 17.5995H20.4961" fill="white"/>
    <path d="M22.4961 17.5995C23.3261 17.5995 23.9961 18.1949 23.9961 18.9324C23.9961 19.67 23.3261 20.2654 22.4961 20.2654H19.9961H21.9961C22.8261 20.2654 23.4961 20.8607 23.4961 21.5983C23.4961 22.3358 22.8261 22.9312 21.9961 22.9312H20.9961H12.9961C9.68609 22.9312 6.99609 20.532 6.99609 17.5817C6.99609 15.1825 8.76609 13.1476 11.2161 12.4722C12.4461 12.1257 13.3661 11.2015 13.7661 10.0997L14.6861 7.58491C14.8461 7.00731 15.5061 6.85625 16.1661 6.96288C17.2161 7.12283 18.1061 8.32245 18.1061 10.4907L17.9961 12.2679H23.4961C24.3261 12.2679 24.9961 12.8632 24.9961 13.6008C24.9961 14.3384 24.3261 14.9337 23.4961 14.9337H20.9961H22.9961C23.8261 14.9337 24.4961 15.529 24.4961 16.2666C24.4961 17.0041 23.8261 17.5995 22.9961 17.5995H20.4961" stroke="white" stroke-miterlimit="10" stroke-linecap="round" stroke-linejoin="round"/>
    </svg>
    