<svg width="18" height="18" viewBox="0 0 18 18" fill="none" xmlns="http://www.w3.org/2000/svg">
    <path d="M15.5 12.0019C16.33 12.0019 17 12.6717 17 13.5014C17 14.3312 16.33 15.001 15.5 15.001H13H15C15.83 15.001 16.5 15.6707 16.5 16.5005C16.5 17.3302 15.83 18 15 18H14H6C2.69 18 0 15.3009 0 11.9819C0 9.2828 1.77 6.99349 4.22 6.23373C5.45 5.84386 6.37 4.80419 6.77 3.56458L7.69 0.735478C7.85 0.085678 8.51 -0.084262 9.17 0.035698C10.22 0.215638 11.11 1.56521 11.11 4.00444L11 6.0038H16.5C17.33 6.0038 18 6.67359 18 7.5033C18 8.3331 17.33 9.0029 16.5 9.0029H14H16C16.83 9.0029 17.5 9.6726 17.5 10.5024C17.5 11.3321 16.83 12.0019 16 12.0019H13.5" fill="white"/>
    </svg>
    