<svg width="24" height="24" viewBox="0 0 24 24" fill="none" xmlns="http://www.w3.org/2000/svg">
<path d="M11.9998 15.9998L13.1998 14.7998H10.7998L11.9998 15.9998Z" stroke="currentColor" stroke-width="1.15" stroke-linecap="round"/>
<path d="M12 15.9998V8.7998" stroke="currentColor" stroke-width="1.15" stroke-linejoin="round"/>
<path d="M1 15.4C1 18.388 3.211 20.8 5.95 20.8H19.15C21.273 20.8 23 18.916 23 16.6C23 14.284 21.273 12.4 19.15 12.4C18.93 12.4 18.699 12.424 18.49 12.46C18.567 12.052 18.6 11.632 18.6 11.2C18.6 7.228 15.641 4 12 4C8.722 4 6.005 6.604 5.499 10.024C2.969 10.276 1 12.58 1 15.4Z" stroke="currentColor" stroke-miterlimit="10" stroke-linecap="round" stroke-linejoin="round"/>
</svg>
