<svg width="19" height="18" viewBox="0 0 19 18" fill="none" xmlns="http://www.w3.org/2000/svg">
    <path fillRule="evenodd" clipRule="evenodd" d="M9.5762 1.60718C11.5585 1.60718 13.2231 2.31432 14.5159 3.47275L14.6197 3.56757L12.4919 5.64529C11.9471 5.13421 10.9921 4.52254 9.57653 4.52254C7.58238 4.52254 5.88974 5.83814 5.27838 7.65614C5.12731 8.12543 5.03538 8.62782 5.03538 9.14757C5.03538 9.66668 5.12763 10.1697 5.28674 10.6387C5.89006 12.4567 7.58238 13.772 9.5762 13.772C10.652 13.772 11.4816 13.4872 12.1094 13.0725L12.1901 13.0179L12.2887 12.9465C13.1929 12.269 13.6207 11.3124 13.7223 10.6422L13.732 10.5715H9.57588V7.77346H16.6553C16.7643 8.24275 16.8145 8.695 16.8145 9.31471C16.8145 11.6104 15.9935 13.5457 14.5693 14.861C13.3208 16.0171 11.6118 16.6873 9.57588 16.6873C6.67306 16.6873 4.15981 15.0474 2.89917 12.647L2.84003 12.5319L2.76867 12.385C2.28692 11.3736 2.03667 10.2675 2.03613 9.14725C2.03613 7.99011 2.30195 6.89404 2.76899 5.9095L2.84035 5.76261L2.89949 5.64786C4.16013 3.24646 6.67306 1.60718 9.5762 1.60718Z" fill="currentColor"/>
    </svg>
    