<svg width="28" height="28" viewBox="0 0 40 40" fill="none" xmlns="http://www.w3.org/2000/svg">
    <circle cx="20" cy="20" r="20" fill="#FF976F"/>
    <path d="M20.2398 22.6006C21.2898 22.6006 22.2298 21.8306 22.3298 20.7606L23.1698 13.0206C23.3798 11.6606 22.3398 10.6006 21.0798 10.6006H19.2998C18.0498 10.6006 17.0998 11.6606 17.2098 12.9206L18.0498 20.6606C18.2498 21.8306 19.0898 22.6006 20.2398 22.6006Z" fill="#FDFDFD"/>
    <path d="M20.1982 28.6006C21.3028 28.6006 22.1982 27.7052 22.1982 26.6006C22.1982 25.496 21.3028 24.6006 20.1982 24.6006C19.0936 24.6006 18.1982 25.496 18.1982 26.6006C18.1982 27.7052 19.0936 28.6006 20.1982 28.6006Z" fill="#FDFDFD"/>
    </svg>
    