<svg width="40" height="40" viewBox="0 0 40 40" fill="none" xmlns="http://www.w3.org/2000/svg">
    <circle cx="20" cy="20" r="20" fill="#F16982"/>
    <path d="M13.2408 22.5996C14.2908 22.5996 15.2308 21.8296 15.3308 20.7596L16.1708 13.0196C16.3808 11.6596 15.3408 10.5996 14.0808 10.5996H12.3008C11.0508 10.5996 10.1008 11.6596 10.2108 12.9196L11.0508 20.6596C11.2508 21.8296 12.0908 22.5996 13.2408 22.5996Z" fill="#FDFDFD"/>
    <path d="M13.2012 28.5996C14.3058 28.5996 15.2012 27.7042 15.2012 26.5996C15.2012 25.495 14.3058 24.5996 13.2012 24.5996C12.0966 24.5996 11.2012 25.495 11.2012 26.5996C11.2012 27.7042 12.0966 28.5996 13.2012 28.5996Z" fill="#FDFDFD"/>
    <path d="M27.2408 22.6006C28.2908 22.6006 29.2308 21.8306 29.3308 20.7606L30.1708 13.0206C30.3808 11.6606 29.3408 10.6006 28.0808 10.6006H26.3008C25.0508 10.6006 24.1008 11.6606 24.2108 12.9206L25.0508 20.6606C25.2508 21.8306 26.0908 22.6006 27.2408 22.6006Z" fill="#FDFDFD"/>
    <path d="M27.2012 28.5996C28.3058 28.5996 29.2012 27.7042 29.2012 26.5996C29.2012 25.495 28.3058 24.5996 27.2012 24.5996C26.0966 24.5996 25.2012 25.495 25.2012 26.5996C25.2012 27.7042 26.0966 28.5996 27.2012 28.5996Z" fill="#FDFDFD"/>
    </svg>
    