<svg width="25" height="31" viewBox="0 0 25 31" fill="none" xmlns="http://www.w3.org/2000/svg">
    <rect x="1.01172" y="4" width="23" height="23" rx="11.5" stroke="currentColor"/>
    <path d="M14.0117 13.5C14.0117 12.9477 13.564 12.5 13.0117 12.5H12.5117C11.9594 12.5 11.5117 12.9477 11.5117 13.5V22.5C11.5117 23.0523 11.9594 23.5 12.5117 23.5H13.0117C13.564 23.5 14.0117 23.0523 14.0117 22.5V13.5Z" fill="currentColor"/>
    <path d="M14.0117 8.5C14.0117 7.94772 13.564 7.5 13.0117 7.5H12.5117C11.9594 7.5 11.5117 7.94772 11.5117 8.5V9.5C11.5117 10.0523 11.9594 10.5 12.5117 10.5H13.0117C13.564 10.5 14.0117 10.0523 14.0117 9.5V8.5Z" fill="currentColor"/>
    </svg>
    