<svg width="19" height="24" viewBox="0 0 19 24" fill="none" xmlns="http://www.w3.org/2000/svg">
    <path
        d="M5.07206 1.49976H9.54508H14.0181C14.8997 1.49976 15.6998 1.80599 16.2803 2.29968C16.8607 2.79337 17.22 3.47388 17.22 4.22308V17.9617V19.7471C17.22 20.4963 16.86 21.1774 16.2803 21.6705C15.6998 22.1642 14.8997 22.4698 14.0181 22.4698H5.0713C4.19044 22.4698 3.38958 22.1635 2.80913 21.6705C2.22868 21.1768 1.86938 20.4956 1.86938 19.7471V17.9617V4.22308C1.86938 3.47388 2.22943 2.79273 2.80913 2.29968C3.38958 1.80599 4.19044 1.49976 5.0713 1.49976H5.07206ZM5.26453 7.39388C5.04639 7.19679 5.05772 6.88606 5.28944 6.70053C5.52117 6.51499 5.8865 6.52462 6.10464 6.72171L8.96765 9.29866V2.48264H5.07206C4.50972 2.48264 3.99871 2.67845 3.62734 2.99431C3.25598 3.30953 3.02576 3.7448 3.02576 4.22308V17.4706H16.0652V4.22308C16.0652 3.74544 15.8349 3.31017 15.4636 2.99431C15.0922 2.67845 14.5812 2.48264 14.0189 2.48264H10.1233V9.29866L12.9863 6.72171C13.2044 6.52462 13.569 6.51499 13.8015 6.70053C14.0332 6.88606 14.0445 7.19614 13.8264 7.39388L9.96551 10.869L9.9406 10.8902C9.70887 11.0757 9.34355 11.0661 9.1254 10.869L5.26453 7.39388ZM16.0652 18.4535H3.02576V19.7477C3.02576 20.2254 3.25598 20.6606 3.62734 20.9765C3.99871 21.2923 4.50972 21.4882 5.07206 21.4882H14.0189C14.5812 21.4882 15.0922 21.2923 15.4636 20.9765C15.8349 20.6606 16.0652 20.226 16.0652 19.7477V18.4535Z"
        fill="currentColor" />
</svg>
    