<svg width="25" height="31" viewBox="0 0 25 31" fill="none" xmlns="http://www.w3.org/2000/svg">
    <rect x="1.01172" y="4" width="23" height="23" rx="11.5" stroke="currentColor"/>
    <path d="M12.5117 19.5C11.9594 19.5 11.5117 19.9477 11.5117 20.5V21.5C11.5117 22.0523 11.9594 22.5 12.5117 22.5H13.0117C13.564 22.5 14.0117 22.0523 14.0117 21.5V20.5C14.0117 19.9477 13.564 19.5 13.0117 19.5H12.5117Z" fill="currentColor"/>
    <path d="M12.5117 7C10.3026 7 8.51172 8.79086 8.51172 11C8.51172 11.5523 8.95944 12 9.51172 12C10.064 12 10.5117 11.5523 10.5117 11C10.5117 9.89543 11.4072 9 12.5117 9C13.6163 9 14.5117 9.89543 14.5117 11C14.5117 11.7403 14.1417 12.3866 13.5817 12.7324C12.7613 13.2271 12.0117 14.0946 12.0117 15.5V16.5C12.0117 17.0523 12.4594 17.5 13.0117 17.5C13.564 17.5 14.0117 17.0523 14.0117 16.5V15.5C14.0117 14.9054 14.3622 14.4729 14.9417 14.1176C16.0132 13.4197 16.5117 12.2486 16.5117 11C16.5117 8.79086 14.7209 7 12.5117 7Z" fill="currentColor"/>
</svg>