<svg width="32" height="32" viewBox="0 0 32 32" fill="none" xmlns="http://www.w3.org/2000/svg">
    <path d="M0 16C0 7.16344 7.16344 0 16 0C24.8366 0 32 7.16344 32 16C32 24.8366 24.8366 32 16 32C7.16344 32 0 24.8366 0 16Z" fill="currentColor"/>
    <path d="M9.50391 14.3897C8.67391 14.3897 8.00391 13.7199 8.00391 12.8902C8.00391 12.0604 8.67391 11.3906 9.50391 11.3906H12.0039H10.0039C9.17391 11.3906 8.50391 10.7209 8.50391 9.8911C8.50391 9.0614 9.17391 8.3916 10.0039 8.3916L11.0039 8.3916H19.0039C22.3139 8.3916 25.0039 11.0907 25.0039 14.4097C25.0039 17.1088 23.2339 19.3981 20.7839 20.1579C19.5539 20.5477 18.6339 21.5874 18.2339 22.827L17.3139 25.6561C17.1539 26.3059 16.4939 26.4759 15.8339 26.3559C14.7839 26.176 13.8939 24.8264 13.8939 22.3872L14.0039 20.3878H8.50391C7.67391 20.3878 7.00391 19.718 7.00391 18.8883C7.00391 18.0585 7.67391 17.3887 8.50391 17.3887H11.0039H9.00391C8.17391 17.3887 7.50391 16.719 7.50391 15.8892C7.50391 15.0595 8.17391 14.3897 9.00391 14.3897H11.5039" fill="white"/>
    </svg>
    