<svg width="24" height="24" viewBox="0 0 24 24" fill="none" xmlns="http://www.w3.org/2000/svg">
    <path
        d="M18.5 8.9981C19.33 8.9981 20 8.32831 20 7.49857C20 6.66884 19.33 5.99905 18.5 5.99905H16H18C18.83 5.99905 19.5 5.32926 19.5 4.49952C19.5 3.66979 18.83 3 18 3H17H9C5.69 3 3 5.69915 3 9.01809C3 11.7172 4.77 14.0065 7.22 14.7663C8.45 15.1561 9.37 16.1958 9.77 17.4354L10.69 20.2645C10.85 20.9143 11.51 21.0843 12.17 20.9643C13.22 20.7844 14.11 19.4348 14.11 16.9956L14 14.9962H19.5C20.33 14.9962 21 14.3264 21 13.4967C21 12.6669 20.33 11.9971 19.5 11.9971H17H19C19.83 11.9971 20.5 11.3274 20.5 10.4976C20.5 9.66789 19.83 8.9981 19 8.9981H16.5"
        stroke="currentColor" stroke-miterlimit="10" strokeLinecap="round" strokeLinejoin="round" />
</svg>