<svg width="19" height="18" viewBox="0 0 19 18" fill="none" xmlns="http://www.w3.org/2000/svg">
    <path d="M2.83398 5.9981C2.00398 5.9981 1.33398 5.3283 1.33398 4.4986C1.33398 3.6688 2.00398 2.999 2.83398 2.999H5.33398H3.33398C2.50398 2.999 1.83398 2.3293 1.83398 1.4995C1.83398 0.669802 2.50398 1.90735e-06 3.33398 1.90735e-06L4.33398 1.90735e-06H12.334C15.644 1.90735e-06 18.334 2.6991 18.334 6.0181C18.334 8.7172 16.564 11.0065 14.114 11.7663C12.884 12.1561 11.964 13.1958 11.564 14.4354L10.644 17.2645C10.484 17.9143 9.82398 18.0843 9.16398 17.9643C8.11398 17.7844 7.22398 16.4348 7.22398 13.9956L7.33398 11.9962H1.83398C1.00398 11.9962 0.333984 11.3264 0.333984 10.4967C0.333984 9.6669 1.00398 8.9971 1.83398 8.9971H4.33398H2.33398C1.50398 8.9971 0.833984 8.3274 0.833984 7.4976C0.833984 6.6679 1.50398 5.9981 2.33398 5.9981H4.83398" fill="white"/>
    </svg>
    