<svg width="24" height="25" viewBox="0 0 24 25" fill="none" xmlns="http://www.w3.org/2000/svg">
    <path d="M7.75998 7.5H8.87988" stroke="#285EDC" stroke-linecap="round" stroke-linejoin="round" />
    <path d="M9.63665 4L10.3438 4.70711" stroke="#285EDC" stroke-linecap="round" stroke-linejoin="round" />
    <path d="M13.8799 2.5V3.5" stroke="#5F88E5" stroke-linecap="round" stroke-linejoin="round" />
    <path d="M17.3798 4.70711L18.0869 4" stroke="#5F88E5" stroke-linecap="round" stroke-linejoin="round" />
    <path d="M18.8799 7.5H20" stroke="#5F88E5" stroke-linecap="round" stroke-linejoin="round" />
    <path
        d="M12.6175 15.3V10.97C12.6175 10.27 12.0475 9.7 11.3475 9.7C10.6475 9.7 10.0775 10.27 10.0775 10.97V15.3V12.57C10.0775 11.87 9.5075 11.3 8.8075 11.3C8.1075 11.3 7.5375 11.87 7.5375 12.57V15.3V14.12C7.5375 13.45 6.9675 12.9 6.2675 12.9C5.5675 12.9 4.9975 13.45 4.9975 14.12V18.1C4.9975 20.54 7.0275 22.5 9.5575 22.5H10.6375C11.7175 22.5 12.6675 22.13 13.4275 21.58L18.6175 16.63C19.1275 16.14 19.1275 15.3 18.6175 14.81C18.1075 14.32 17.3475 14.43 16.8475 14.92L15.1475 16.51V7.72C15.1475 7.05 14.5775 6.5 13.8775 6.5C13.1775 6.5 12.6075 7.05 12.6075 7.72L12.6175 15.3Z"
        stroke="#5F88E5" stroke-linecap="round" stroke-linejoin="round" />
</svg>