<svg width="32" height="32" viewBox="0 0 32 32" fill="none" xmlns="http://www.w3.org/2000/svg">
<path d="M0.5 16C0.5 7.43959 7.43959 0.5 16 0.5C24.5604 0.5 31.5 7.43959 31.5 16C31.5 24.5604 24.5604 31.5 16 31.5C7.43959 31.5 0.5 24.5604 0.5 16Z" stroke="white"/>
<path d="M20.498 21.5156V23H11.1914V21.7012L15.8496 16.5156C16.4225 15.8776 16.8652 15.3372 17.1777 14.8945C17.4967 14.4453 17.7181 14.0449 17.8418 13.6934C17.972 13.3353 18.0371 12.9707 18.0371 12.5996C18.0371 12.1309 17.9395 11.7077 17.7441 11.3301C17.5553 10.946 17.2754 10.64 16.9043 10.4121C16.5332 10.1842 16.084 10.0703 15.5566 10.0703C14.9251 10.0703 14.3978 10.194 13.9746 10.4414C13.5579 10.6823 13.2454 11.0208 13.0371 11.457C12.8288 11.8932 12.7246 12.3945 12.7246 12.9609H10.918C10.918 12.1602 11.0938 11.4277 11.4453 10.7637C11.7969 10.0996 12.3177 9.57227 13.0078 9.18164C13.6979 8.78451 14.5475 8.58594 15.5566 8.58594C16.4551 8.58594 17.2233 8.74544 17.8613 9.06445C18.4993 9.37695 18.9876 9.81966 19.3262 10.3926C19.6712 10.959 19.8438 11.623 19.8438 12.3848C19.8438 12.8014 19.7721 13.2246 19.6289 13.6543C19.4922 14.0775 19.3001 14.5007 19.0527 14.9238C18.8118 15.347 18.5286 15.7637 18.2031 16.1738C17.8841 16.584 17.5423 16.9876 17.1777 17.3848L13.3691 21.5156H20.498Z" fill="white"/>
</svg>
