<svg width="32" height="26" viewBox="0 0 32 26" fill="none" xmlns="http://www.w3.org/2000/svg">
    <path d="M27.5861 19.8621H4.41381C4.1853 19.8621 4 19.6768 4 19.4483V4.55175C4 4.32324 4.1853 4.13794 4.41381 4.13794H27.5862C27.8147 4.13794 28 4.32324 28 4.55175V19.4483C28 19.6768 27.8147 19.8621 27.5861 19.8621Z" fill="#F5F5F5"/>
    <g filter="url(#filter0_dd_6283_139952)">
    <path d="M28 5.34755H4V4.55175C4 4.32324 4.1853 4.13794 4.41381 4.13794H27.5862C27.8147 4.13794 28 4.32324 28 4.55175L28 5.34755Z" fill="#FF4B55"/>
    <path d="M28 8.97607H4V10.1856H28V8.97607Z" fill="#FF4B55"/>
    <path d="M28 6.55688H4V7.76644H28V6.55688Z" fill="#FF4B55"/>
    <path d="M28 12.6049H4.41381C4.1853 12.6049 4 12.4196 4 12.1911V11.3953H28V12.6049Z" fill="#FF4B55"/>
    <path d="M28 16.2336H4V17.4432H28V16.2336Z" fill="#FF4B55"/>
    <path d="M27.5861 19.8622H4.41381C4.1853 19.8622 4 19.6769 4 19.4483V18.6526H28V19.4484C28 19.6769 27.8147 19.8622 27.5861 19.8622Z" fill="#FF4B55"/>
    <path d="M28 13.8145H4V15.024H28V13.8145Z" fill="#FF4B55"/>
    </g>
    <path d="M14.7586 4.13794H4.41381C4.1853 4.13794 4 4.32319 4 4.5517V12.1909C4 12.4194 4.1853 12.6047 4.41381 12.6047H14.7586C14.9872 12.6047 15.1724 12.4194 15.1724 12.1909V4.5517C15.1724 4.32319 14.9871 4.13794 14.7586 4.13794Z" fill="#226CBC"/>
    <path d="M5.16186 5.08771L5.25345 5.3624L5.543 5.3646C5.5805 5.36493 5.59601 5.41274 5.56587 5.43501L5.33295 5.60704L5.42033 5.88309C5.43167 5.9188 5.39094 5.94843 5.36042 5.92659L5.12488 5.75826L4.88933 5.92663C4.85881 5.94843 4.81817 5.91885 4.82942 5.88313L4.9168 5.60709L4.68388 5.43506C4.65374 5.41274 4.66925 5.36498 4.70675 5.36465L4.9963 5.36245L5.08789 5.08776C5.0997 5.05213 5.14995 5.05213 5.16186 5.08771Z" fill="#F5F5F5"/>
    <path d="M5.16186 6.52469L5.25345 6.79938L5.543 6.80158C5.5805 6.80191 5.59601 6.84972 5.56587 6.87199L5.33295 7.04402L5.42033 7.32006C5.43167 7.35578 5.39094 7.38541 5.36042 7.36356L5.12488 7.19524L4.88933 7.36361C4.85881 7.38541 4.81817 7.35583 4.82942 7.32011L4.9168 7.04406L4.68388 6.87203C4.65374 6.84972 4.66925 6.80196 4.70675 6.80163L4.9963 6.79942L5.08789 6.52474C5.0997 6.48916 5.14995 6.48916 5.16186 6.52469Z" fill="#F5F5F5"/>
    <path d="M5.16186 7.96146L5.25345 8.23614L5.543 8.23835C5.5805 8.23868 5.59601 8.28649 5.56587 8.30875L5.33295 8.48078L5.42033 8.75683C5.43167 8.79255 5.39094 8.82217 5.36042 8.80033L5.12488 8.632L4.88933 8.80038C4.85881 8.82217 4.81817 8.7926 4.82942 8.75688L4.9168 8.48083L4.68388 8.3088C4.65374 8.28649 4.66925 8.23872 4.70675 8.23839L4.9963 8.23619L5.08789 7.9615C5.0997 7.92593 5.14995 7.92593 5.16186 7.96146Z" fill="#F5F5F5"/>
    <path d="M5.16186 9.3985L5.25345 9.67319L5.543 9.67539C5.5805 9.67572 5.59601 9.72353 5.56587 9.7458L5.33295 9.91783L5.42033 10.1939C5.43167 10.2296 5.39094 10.2592 5.36042 10.2374L5.12488 10.069L4.88933 10.2374C4.85881 10.2592 4.81817 10.2296 4.82942 10.1939L4.9168 9.91788L4.68388 9.74585C4.65374 9.72353 4.66925 9.67577 4.70675 9.67544L4.9963 9.67324L5.08789 9.39855C5.0997 9.36293 5.14995 9.36293 5.16186 9.3985Z" fill="#F5F5F5"/>
    <path d="M5.16186 10.8353L5.25345 11.11L5.543 11.1122C5.5805 11.1125 5.59601 11.1603 5.56587 11.1826L5.33295 11.3546L5.42033 11.6307C5.43167 11.6664 5.39094 11.696 5.36042 11.6742L5.12488 11.5059L4.88933 11.6742C4.85881 11.696 4.81817 11.6664 4.82942 11.6307L4.9168 11.3547L4.68388 11.1826C4.65374 11.1603 4.66925 11.1126 4.70675 11.1122L4.9963 11.11L5.08789 10.8354C5.0997 10.7997 5.14995 10.7997 5.16186 10.8353Z" fill="#F5F5F5"/>
    <path d="M6.27709 5.79227L6.36869 6.06696L6.65823 6.06916C6.69573 6.06949 6.71125 6.1173 6.68111 6.13957L6.44819 6.3116L6.53556 6.58765C6.54691 6.62337 6.50617 6.65299 6.47566 6.63115L6.24011 6.46277L6.00456 6.63115C5.97405 6.65294 5.93341 6.62337 5.94466 6.58765L6.03203 6.3116L5.79911 6.13957C5.76897 6.11726 5.78449 6.06949 5.82199 6.06916L6.11153 6.06696L6.20313 5.79227C6.21489 5.75674 6.26523 5.75674 6.27709 5.79227Z" fill="#F5F5F5"/>
    <path d="M6.27709 7.22908L6.36869 7.50376L6.65823 7.50597C6.69573 7.50629 6.71125 7.55411 6.68111 7.57637L6.44819 7.7484L6.53556 8.02445C6.54691 8.06017 6.50617 8.08979 6.47566 8.06795L6.24011 7.89957L6.00456 8.06795C5.97405 8.08974 5.93341 8.06021 5.94466 8.02445L6.03203 7.7484L5.79911 7.57637C5.76897 7.55406 5.78449 7.50629 5.82199 7.50597L6.11153 7.50376L6.20313 7.22908C6.21489 7.1935 6.26523 7.1935 6.27709 7.22908Z" fill="#F5F5F5"/>
    <path d="M6.27709 8.66609L6.36869 8.94077L6.65823 8.94298C6.69573 8.94331 6.71125 8.99112 6.68111 9.01338L6.44819 9.18542L6.53556 9.46146C6.54691 9.49718 6.50617 9.52681 6.47566 9.50496L6.24011 9.33659L6.00456 9.50496C5.97405 9.52676 5.93341 9.49718 5.94466 9.46146L6.03203 9.18542L5.79911 9.01338C5.76897 8.99107 5.78449 8.94331 5.82199 8.94298L6.11153 8.94077L6.20313 8.66609C6.21489 8.63051 6.26523 8.63051 6.27709 8.66609Z" fill="#F5F5F5"/>
    <path d="M6.27709 10.1031L6.36869 10.3778L6.65823 10.38C6.69573 10.3803 6.71125 10.4281 6.68111 10.4504L6.44819 10.6224L6.53556 10.8984C6.54691 10.9342 6.50617 10.9638 6.47566 10.9419L6.24011 10.7736L6.00456 10.9419C5.97405 10.9637 5.93341 10.9342 5.94466 10.8984L6.03203 10.6224L5.79911 10.4504C5.76897 10.428 5.78449 10.3803 5.82199 10.38L6.11153 10.3778L6.20313 10.1031C6.21489 10.0675 6.26523 10.0675 6.27709 10.1031Z" fill="#F5F5F5"/>
    <path d="M7.39233 5.08772L7.48392 5.36241L7.77347 5.36461C7.81097 5.36494 7.82648 5.41275 7.79634 5.43501L7.56342 5.60704L7.6508 5.88309C7.66214 5.91881 7.62141 5.94843 7.59089 5.92659L7.35534 5.75822L7.1198 5.92659C7.08928 5.94839 7.04864 5.91881 7.05989 5.88309L7.14727 5.60704L6.91434 5.43501C6.8842 5.4127 6.89972 5.36494 6.93722 5.36461L7.22677 5.36241L7.31836 5.08772C7.33017 5.05214 7.38047 5.05214 7.39233 5.08772Z" fill="#F5F5F5"/>
    <path d="M7.39233 6.5247L7.48392 6.79938L7.77347 6.80159C7.81097 6.80191 7.82648 6.84973 7.79634 6.87199L7.56342 7.04402L7.6508 7.32007C7.66214 7.35579 7.62141 7.38541 7.59089 7.36357L7.35534 7.19519L7.1198 7.36357C7.08928 7.38537 7.04864 7.35579 7.05989 7.32007L7.14727 7.04402L6.91434 6.87199C6.8842 6.84968 6.89972 6.80191 6.93722 6.80159L7.22677 6.79938L7.31836 6.5247C7.33017 6.48916 7.38047 6.48916 7.39233 6.5247Z" fill="#F5F5F5"/>
    <path d="M7.39233 7.96146L7.48392 8.23615L7.77347 8.23835C7.81097 8.23868 7.82648 8.28649 7.79634 8.30876L7.56342 8.48079L7.6508 8.75684C7.66214 8.79256 7.62141 8.82218 7.59089 8.80034L7.35534 8.63196L7.1198 8.80034C7.08928 8.82214 7.04864 8.79256 7.05989 8.75684L7.14727 8.48079L6.91434 8.30876C6.8842 8.28645 6.89972 8.23868 6.93722 8.23835L7.22677 8.23615L7.31836 7.96146C7.33017 7.92593 7.38047 7.92593 7.39233 7.96146Z" fill="#F5F5F5"/>
    <path d="M7.39233 9.39851L7.48392 9.6732L7.77347 9.6754C7.81097 9.67573 7.82648 9.72354 7.79634 9.74581L7.56342 9.91784L7.6508 10.1939C7.66214 10.2296 7.62141 10.2592 7.59089 10.2374L7.35534 10.069L7.1198 10.2374C7.08928 10.2592 7.04864 10.2296 7.05989 10.1939L7.14727 9.91784L6.91434 9.74581C6.8842 9.72349 6.89972 9.67573 6.93722 9.6754L7.22677 9.6732L7.31836 9.39851C7.33017 9.36293 7.38047 9.36293 7.39233 9.39851Z" fill="#F5F5F5"/>
    <path d="M7.39233 10.8353L7.48392 11.11L7.77347 11.1122C7.81097 11.1125 7.82648 11.1603 7.79634 11.1826L7.56342 11.3546L7.6508 11.6307C7.66214 11.6664 7.62141 11.696 7.59089 11.6742L7.35534 11.5058L7.1198 11.6742C7.08928 11.696 7.04864 11.6664 7.05989 11.6307L7.14727 11.3546L6.91434 11.1826C6.8842 11.1603 6.89972 11.1125 6.93722 11.1122L7.22677 11.11L7.31836 10.8353C7.33017 10.7997 7.38047 10.7997 7.39233 10.8353Z" fill="#F5F5F5"/>
    <path d="M8.50756 5.79227L8.59916 6.06696L8.8887 6.06916C8.9262 6.06949 8.94172 6.1173 8.91158 6.13957L8.67866 6.3116L8.76603 6.58765C8.77737 6.62337 8.73664 6.65299 8.70612 6.63115L8.47058 6.46277L8.23503 6.63115C8.20452 6.65294 8.16388 6.62337 8.17513 6.58765L8.2625 6.3116L8.02958 6.13957C7.99944 6.11726 8.01495 6.06949 8.05245 6.06916L8.342 6.06696L8.43359 5.79227C8.44536 5.75674 8.4957 5.75674 8.50756 5.79227Z" fill="#F5F5F5"/>
    <path d="M8.50756 7.22908L8.59916 7.50376L8.8887 7.50597C8.9262 7.50629 8.94172 7.55411 8.91158 7.57637L8.67866 7.7484L8.76603 8.02445C8.77737 8.06017 8.73664 8.08979 8.70612 8.06795L8.47058 7.89957L8.23503 8.06795C8.20452 8.08974 8.16388 8.06021 8.17513 8.02445L8.2625 7.7484L8.02958 7.57637C7.99944 7.55406 8.01495 7.50629 8.05245 7.50597L8.342 7.50376L8.43359 7.22908C8.44536 7.1935 8.4957 7.1935 8.50756 7.22908Z" fill="#F5F5F5"/>
    <path d="M8.50756 8.66609L8.59916 8.94077L8.8887 8.94298C8.9262 8.94331 8.94172 8.99112 8.91158 9.01338L8.67866 9.18542L8.76603 9.46146C8.77737 9.49718 8.73664 9.52681 8.70612 9.50496L8.47058 9.33659L8.23503 9.50496C8.20452 9.52676 8.16388 9.49718 8.17513 9.46146L8.2625 9.18542L8.02958 9.01338C7.99944 8.99107 8.01495 8.94331 8.05245 8.94298L8.342 8.94077L8.43359 8.66609C8.44536 8.63051 8.4957 8.63051 8.50756 8.66609Z" fill="#F5F5F5"/>
    <path d="M8.50756 10.1031L8.59916 10.3778L8.8887 10.38C8.9262 10.3803 8.94172 10.4281 8.91158 10.4504L8.67866 10.6224L8.76603 10.8984C8.77737 10.9342 8.73664 10.9638 8.70612 10.9419L8.47058 10.7736L8.23503 10.9419C8.20452 10.9637 8.16388 10.9342 8.17513 10.8984L8.2625 10.6224L8.02958 10.4504C7.99944 10.428 8.01495 10.3803 8.05245 10.38L8.342 10.3778L8.43359 10.1031C8.44536 10.0675 8.4957 10.0675 8.50756 10.1031Z" fill="#F5F5F5"/>
    <path d="M9.62284 5.08772L9.71444 5.36241L10.004 5.36461C10.0415 5.36494 10.057 5.41275 10.0269 5.43501L9.79394 5.60704L9.88131 5.88309C9.89266 5.91881 9.85192 5.94843 9.82141 5.92659L9.58581 5.75822L9.35027 5.92659C9.31975 5.94839 9.27911 5.91881 9.29036 5.88309L9.37774 5.60704L9.14481 5.43501C9.11467 5.4127 9.13019 5.36494 9.16769 5.36461L9.45723 5.36241L9.54883 5.08772C9.56069 5.05214 9.61098 5.05214 9.62284 5.08772Z" fill="#F5F5F5"/>
    <path d="M9.62284 6.5247L9.71444 6.79938L10.004 6.80159C10.0415 6.80191 10.057 6.84973 10.0269 6.87199L9.79394 7.04402L9.88131 7.32007C9.89266 7.35579 9.85192 7.38541 9.82141 7.36357L9.58581 7.19519L9.35027 7.36357C9.31975 7.38537 9.27911 7.35579 9.29036 7.32007L9.37774 7.04402L9.14481 6.87199C9.11467 6.84968 9.13019 6.80191 9.16769 6.80159L9.45723 6.79938L9.54883 6.5247C9.56069 6.48916 9.61098 6.48916 9.62284 6.5247Z" fill="#F5F5F5"/>
    <path d="M9.62284 7.96146L9.71444 8.23615L10.004 8.23835C10.0415 8.23868 10.057 8.28649 10.0269 8.30876L9.79394 8.48079L9.88131 8.75684C9.89266 8.79256 9.85192 8.82218 9.82141 8.80034L9.58581 8.63196L9.35027 8.80034C9.31975 8.82214 9.27911 8.79256 9.29036 8.75684L9.37774 8.48079L9.14481 8.30876C9.11467 8.28645 9.13019 8.23868 9.16769 8.23835L9.45723 8.23615L9.54883 7.96146C9.56069 7.92593 9.61098 7.92593 9.62284 7.96146Z" fill="#F5F5F5"/>
    <path d="M9.62284 9.39851L9.71444 9.6732L10.004 9.6754C10.0415 9.67573 10.057 9.72354 10.0269 9.74581L9.79394 9.91784L9.88131 10.1939C9.89266 10.2296 9.85192 10.2592 9.82141 10.2374L9.58581 10.069L9.35027 10.2374C9.31975 10.2592 9.27911 10.2296 9.29036 10.1939L9.37774 9.91784L9.14481 9.74581C9.11467 9.72349 9.13019 9.67573 9.16769 9.6754L9.45723 9.6732L9.54883 9.39851C9.56069 9.36293 9.61098 9.36293 9.62284 9.39851Z" fill="#F5F5F5"/>
    <path d="M9.62284 10.8353L9.71444 11.11L10.004 11.1122C10.0415 11.1125 10.057 11.1603 10.0269 11.1826L9.79394 11.3546L9.88131 11.6307C9.89266 11.6664 9.85192 11.696 9.82141 11.6742L9.58581 11.5058L9.35027 11.6742C9.31975 11.696 9.27911 11.6664 9.29036 11.6307L9.37774 11.3546L9.14481 11.1826C9.11467 11.1603 9.13019 11.1125 9.16769 11.1122L9.45723 11.11L9.54883 10.8353C9.56069 10.7997 9.61098 10.7997 9.62284 10.8353Z" fill="#F5F5F5"/>
    <path d="M10.738 5.79227L10.8296 6.06696L11.1192 6.06916C11.1567 6.06949 11.1722 6.1173 11.142 6.13957L10.9091 6.3116L10.9965 6.58765C11.0078 6.62337 10.9671 6.65299 10.9366 6.63115L10.701 6.46277L10.4655 6.63115C10.435 6.65294 10.3943 6.62337 10.4056 6.58765L10.493 6.3116L10.26 6.13957C10.2299 6.11726 10.2454 6.06949 10.2829 6.06916L10.5725 6.06696L10.6641 5.79227C10.6759 5.75674 10.7262 5.75674 10.738 5.79227Z" fill="#F5F5F5"/>
    <path d="M10.738 7.22908L10.8296 7.50376L11.1192 7.50597C11.1567 7.50629 11.1722 7.55411 11.142 7.57637L10.9091 7.7484L10.9965 8.02445C11.0078 8.06017 10.9671 8.08979 10.9366 8.06795L10.701 7.89957L10.4655 8.06795C10.435 8.08974 10.3943 8.06021 10.4056 8.02445L10.493 7.7484L10.26 7.57637C10.2299 7.55406 10.2454 7.50629 10.2829 7.50597L10.5725 7.50376L10.6641 7.22908C10.6759 7.1935 10.7262 7.1935 10.738 7.22908Z" fill="#F5F5F5"/>
    <path d="M10.738 8.66609L10.8296 8.94077L11.1192 8.94298C11.1567 8.94331 11.1722 8.99112 11.142 9.01338L10.9091 9.18542L10.9965 9.46146C11.0078 9.49718 10.9671 9.52681 10.9366 9.50496L10.701 9.33659L10.4655 9.50496C10.435 9.52676 10.3943 9.49718 10.4056 9.46146L10.493 9.18542L10.26 9.01338C10.2299 8.99107 10.2454 8.94331 10.2829 8.94298L10.5725 8.94077L10.6641 8.66609C10.6759 8.63051 10.7262 8.63051 10.738 8.66609Z" fill="#F5F5F5"/>
    <path d="M10.738 10.1031L10.8296 10.3778L11.1192 10.38C11.1567 10.3803 11.1722 10.4281 11.142 10.4504L10.9091 10.6224L10.9965 10.8984C11.0078 10.9342 10.9671 10.9638 10.9366 10.9419L10.701 10.7736L10.4655 10.9419C10.435 10.9637 10.3943 10.9342 10.4056 10.8984L10.493 10.6224L10.26 10.4504C10.2299 10.428 10.2454 10.3803 10.2829 10.38L10.5725 10.3778L10.6641 10.1031C10.6759 10.0675 10.7262 10.0675 10.738 10.1031Z" fill="#F5F5F5"/>
    <path d="M11.8542 5.08772L11.9458 5.36241L12.2354 5.36461C12.2729 5.36494 12.2884 5.41275 12.2583 5.43501L12.0253 5.60704L12.1127 5.88309C12.1241 5.91881 12.0833 5.94843 12.0528 5.92659L11.8173 5.75822L11.5817 5.92659C11.5512 5.94839 11.5106 5.91881 11.5218 5.88309L11.6092 5.60704L11.3763 5.43501C11.3461 5.4127 11.3616 5.36494 11.3991 5.36461L11.6887 5.36241L11.7803 5.08772C11.792 5.05214 11.8424 5.05214 11.8542 5.08772Z" fill="#F5F5F5"/>
    <path d="M11.8542 6.5247L11.9458 6.79938L12.2354 6.80159C12.2729 6.80191 12.2884 6.84973 12.2583 6.87199L12.0253 7.04402L12.1127 7.32007C12.1241 7.35579 12.0833 7.38541 12.0528 7.36357L11.8173 7.19519L11.5817 7.36357C11.5512 7.38537 11.5106 7.35579 11.5218 7.32007L11.6092 7.04402L11.3763 6.87199C11.3461 6.84968 11.3616 6.80191 11.3991 6.80159L11.6887 6.79938L11.7803 6.5247C11.792 6.48916 11.8424 6.48916 11.8542 6.5247Z" fill="#F5F5F5"/>
    <path d="M11.8542 7.96146L11.9458 8.23615L12.2354 8.23835C12.2729 8.23868 12.2884 8.28649 12.2583 8.30876L12.0253 8.48079L12.1127 8.75684C12.1241 8.79256 12.0833 8.82218 12.0528 8.80034L11.8173 8.63196L11.5817 8.80034C11.5512 8.82214 11.5106 8.79256 11.5218 8.75684L11.6092 8.48079L11.3763 8.30876C11.3461 8.28645 11.3616 8.23868 11.3991 8.23835L11.6887 8.23615L11.7803 7.96146C11.792 7.92593 11.8424 7.92593 11.8542 7.96146Z" fill="#F5F5F5"/>
    <path d="M11.8542 9.39851L11.9458 9.6732L12.2354 9.6754C12.2729 9.67573 12.2884 9.72354 12.2583 9.74581L12.0253 9.91784L12.1127 10.1939C12.1241 10.2296 12.0833 10.2592 12.0528 10.2374L11.8173 10.069L11.5817 10.2374C11.5512 10.2592 11.5106 10.2296 11.5218 10.1939L11.6092 9.91784L11.3763 9.74581C11.3461 9.72349 11.3616 9.67573 11.3991 9.6754L11.6887 9.6732L11.7803 9.39851C11.792 9.36293 11.8424 9.36293 11.8542 9.39851Z" fill="#F5F5F5"/>
    <path d="M11.8542 10.8353L11.9458 11.11L12.2354 11.1122C12.2729 11.1125 12.2884 11.1603 12.2583 11.1826L12.0253 11.3546L12.1127 11.6307C12.1241 11.6664 12.0833 11.696 12.0528 11.6742L11.8173 11.5058L11.5817 11.6742C11.5512 11.696 11.5106 11.6664 11.5218 11.6307L11.6092 11.3546L11.3763 11.1826C11.3461 11.1603 11.3616 11.1125 11.3991 11.1122L11.6887 11.11L11.7803 10.8353C11.792 10.7997 11.8424 10.7997 11.8542 10.8353Z" fill="#F5F5F5"/>
    <path d="M12.9695 5.79227L13.0611 6.06696L13.3506 6.06916C13.3881 6.06949 13.4036 6.1173 13.3735 6.13957L13.1406 6.3116L13.2279 6.58765C13.2393 6.62337 13.1986 6.65299 13.168 6.63115L12.9325 6.46277L12.6969 6.63115C12.6664 6.65294 12.6258 6.62337 12.637 6.58765L12.7244 6.3116L12.4915 6.13957C12.4614 6.11726 12.4769 6.06949 12.5144 6.06916L12.8039 6.06696L12.8955 5.79227C12.9073 5.75674 12.9577 5.75674 12.9695 5.79227Z" fill="#F5F5F5"/>
    <path d="M12.9695 7.22908L13.0611 7.50376L13.3506 7.50597C13.3881 7.50629 13.4036 7.55411 13.3735 7.57637L13.1406 7.7484L13.2279 8.02445C13.2393 8.06017 13.1986 8.08979 13.168 8.06795L12.9325 7.89957L12.6969 8.06795C12.6664 8.08974 12.6258 8.06021 12.637 8.02445L12.7244 7.7484L12.4915 7.57637C12.4614 7.55406 12.4769 7.50629 12.5144 7.50597L12.8039 7.50376L12.8955 7.22908C12.9073 7.1935 12.9577 7.1935 12.9695 7.22908Z" fill="#F5F5F5"/>
    <path d="M12.9695 8.66609L13.0611 8.94077L13.3506 8.94298C13.3881 8.94331 13.4036 8.99112 13.3735 9.01338L13.1406 9.18542L13.2279 9.46146C13.2393 9.49718 13.1986 9.52681 13.168 9.50496L12.9325 9.33659L12.6969 9.50496C12.6664 9.52676 12.6258 9.49718 12.637 9.46146L12.7244 9.18542L12.4915 9.01338C12.4614 8.99107 12.4769 8.94331 12.5144 8.94298L12.8039 8.94077L12.8955 8.66609C12.9073 8.63051 12.9577 8.63051 12.9695 8.66609Z" fill="#F5F5F5"/>
    <path d="M12.9695 10.1031L13.0611 10.3778L13.3506 10.38C13.3881 10.3803 13.4036 10.4281 13.3735 10.4504L13.1406 10.6224L13.2279 10.8984C13.2393 10.9342 13.1986 10.9638 13.168 10.9419L12.9325 10.7736L12.6969 10.9419C12.6664 10.9637 12.6258 10.9342 12.637 10.8984L12.7244 10.6224L12.4915 10.4504C12.4614 10.428 12.4769 10.3803 12.5144 10.38L12.8039 10.3778L12.8955 10.1031C12.9073 10.0675 12.9577 10.0675 12.9695 10.1031Z" fill="#F5F5F5"/>
    <path d="M14.0847 5.08772L14.1763 5.36241L14.4659 5.36461C14.5034 5.36494 14.5189 5.41275 14.4887 5.43501L14.2558 5.60704L14.3432 5.88309C14.3545 5.91881 14.3138 5.94843 14.2833 5.92659L14.0477 5.75822L13.8122 5.92659C13.7817 5.94839 13.741 5.91881 13.7523 5.88309L13.8396 5.60704L13.6067 5.43501C13.5766 5.4127 13.5921 5.36494 13.6296 5.36461L13.9191 5.36241L14.0107 5.08772C14.0226 5.05214 14.0728 5.05214 14.0847 5.08772Z" fill="#F5F5F5"/>
    <path d="M14.0847 6.5247L14.1763 6.79938L14.4659 6.80159C14.5034 6.80191 14.5189 6.84973 14.4887 6.87199L14.2558 7.04402L14.3432 7.32007C14.3545 7.35579 14.3138 7.38541 14.2833 7.36357L14.0477 7.19519L13.8122 7.36357C13.7817 7.38537 13.741 7.35579 13.7523 7.32007L13.8396 7.04402L13.6067 6.87199C13.5766 6.84968 13.5921 6.80191 13.6296 6.80159L13.9191 6.79938L14.0107 6.5247C14.0226 6.48916 14.0728 6.48916 14.0847 6.5247Z" fill="#F5F5F5"/>
    <path d="M14.0847 7.96146L14.1763 8.23615L14.4659 8.23835C14.5034 8.23868 14.5189 8.28649 14.4887 8.30876L14.2558 8.48079L14.3432 8.75684C14.3545 8.79256 14.3138 8.82218 14.2833 8.80034L14.0477 8.63196L13.8122 8.80034C13.7817 8.82214 13.741 8.79256 13.7523 8.75684L13.8396 8.48079L13.6067 8.30876C13.5766 8.28645 13.5921 8.23868 13.6296 8.23835L13.9191 8.23615L14.0107 7.96146C14.0226 7.92593 14.0728 7.92593 14.0847 7.96146Z" fill="#F5F5F5"/>
    <path d="M14.0847 9.39851L14.1763 9.6732L14.4659 9.6754C14.5034 9.67573 14.5189 9.72354 14.4887 9.74581L14.2558 9.91784L14.3432 10.1939C14.3545 10.2296 14.3138 10.2592 14.2833 10.2374L14.0477 10.069L13.8122 10.2374C13.7817 10.2592 13.741 10.2296 13.7523 10.1939L13.8396 9.91784L13.6067 9.74581C13.5766 9.72349 13.5921 9.67573 13.6296 9.6754L13.9191 9.6732L14.0107 9.39851C14.0226 9.36293 14.0728 9.36293 14.0847 9.39851Z" fill="#F5F5F5"/>
    <path d="M14.0847 10.8353L14.1763 11.11L14.4659 11.1122C14.5034 11.1125 14.5189 11.1603 14.4887 11.1826L14.2558 11.3546L14.3432 11.6307C14.3545 11.6664 14.3138 11.696 14.2833 11.6742L14.0477 11.5058L13.8122 11.6742C13.7817 11.696 13.741 11.6664 13.7523 11.6307L13.8396 11.3546L13.6067 11.1826C13.5766 11.1603 13.5921 11.1125 13.6296 11.1122L13.9191 11.11L14.0107 10.8353C14.0226 10.7997 14.0728 10.7997 14.0847 10.8353Z" fill="#F5F5F5"/>
    <defs>
    <filter id="filter0_dd_6283_139952" x="0" y="2.13794" width="32" height="23.7241" filterUnits="userSpaceOnUse" color-interpolation-filters="sRGB">
    <feFlood flood-opacity="0" result="BackgroundImageFix"/>
    <feColorMatrix in="SourceAlpha" type="matrix" values="0 0 0 0 0 0 0 0 0 0 0 0 0 0 0 0 0 0 127 0" result="hardAlpha"/>
    <feMorphology radius="5" operator="erode" in="SourceAlpha" result="effect1_dropShadow_6283_139952"/>
    <feOffset dy="-2"/>
    <feGaussianBlur stdDeviation="2"/>
    <feComposite in2="hardAlpha" operator="out"/>
    <feColorMatrix type="matrix" values="0 0 0 0 0.694118 0 0 0 0 0.666667 0 0 0 0 0.854902 0 0 0 0.6 0"/>
    <feBlend mode="normal" in2="BackgroundImageFix" result="effect1_dropShadow_6283_139952"/>
    <feColorMatrix in="SourceAlpha" type="matrix" values="0 0 0 0 0 0 0 0 0 0 0 0 0 0 0 0 0 0 127 0" result="hardAlpha"/>
    <feOffset dy="2"/>
    <feGaussianBlur stdDeviation="2"/>
    <feComposite in2="hardAlpha" operator="out"/>
    <feColorMatrix type="matrix" values="0 0 0 0 0.694142 0 0 0 0 0.664716 0 0 0 0 0.854645 0 0 0 0.6 0"/>
    <feBlend mode="normal" in2="effect1_dropShadow_6283_139952" result="effect2_dropShadow_6283_139952"/>
    <feBlend mode="normal" in="SourceGraphic" in2="effect2_dropShadow_6283_139952" result="shape"/>
    </filter>
    </defs>
    </svg>
    