<svg width="32" height="32" viewBox="0 0 32 32" fill="none" xmlns="http://www.w3.org/2000/svg">
<path d="M24.6667 20.0025C25.7733 20.0025 26.6667 20.8956 26.6667 22.0019C26.6667 23.1083 25.7733 24.0013 24.6667 24.0013H21.3333H24C25.1067 24.0013 26 24.8943 26 26.0007C26 27.1069 25.1067 28 24 28H22.6667H12C7.58667 28 4 24.4012 4 19.9759C4 16.3771 6.36 13.3247 9.62667 12.3116C11.2667 11.7918 12.4933 10.4056 13.0267 8.75277L14.2533 4.98064C14.4667 4.11424 15.3467 3.88765 16.2267 4.0476C17.6267 4.28752 18.8133 6.08694 18.8133 9.33925L18.6667 12.0051H26C27.1067 12.0051 28 12.8981 28 14.0044C28 15.1108 27.1067 16.0039 26 16.0039H22.6667H25.3333C26.44 16.0039 27.3333 16.8968 27.3333 18.0032C27.3333 19.1095 26.44 20.0025 25.3333 20.0025H22" fill="currentColor"/>
</svg>
