<svg width="40" height="40" viewBox="0 0 40 40" fill="none" xmlns="http://www.w3.org/2000/svg">
    <path
        d="M4.64297 19.977C4.63622 19.9778 4.6294 19.9778 4.62266 19.977C4.51187 19.9556 4.39951 19.9433 4.28672 19.9402C4.26172 19.9402 4.23672 19.9402 4.20859 19.9402C3.61704 19.9402 3.04971 20.1752 2.63141 20.5935C2.21312 21.0118 1.97812 21.5791 1.97812 22.1707V22.1762C1.98051 22.613 2.11113 23.0394 2.35377 23.4026C2.59641 23.7658 2.94037 24.0497 3.34297 24.2191C2.4675 23.9451 1.69987 23.4037 1.14792 22.671C0.59596 21.9383 0.287415 21.0511 0.265625 20.134C0.265625 20.1012 0.265625 20.0676 0.265625 20.0332C0.265625 19.453 0.496093 18.8966 0.906329 18.4864C1.31656 18.0762 1.87296 17.8457 2.45312 17.8457C2.47031 17.8457 2.48906 17.8457 2.50625 17.8457C3.06796 17.8586 3.60319 18.0871 4.00099 18.4839C4.39879 18.8806 4.62867 19.4153 4.64297 19.977Z"
        fill="currentColor" />
    <path
        d="M8.99932 20.6148C8.85818 21.6679 8.33968 22.6341 7.5401 23.3338C6.74051 24.0335 5.71418 24.4193 4.65166 24.4195C4.5001 24.4195 4.35088 24.4117 4.20322 24.3977C3.91333 24.3672 3.62708 24.3086 3.34854 24.2227C2.94555 24.0523 2.60157 23.7673 2.35944 23.4029C2.1173 23.0385 1.98772 22.6109 1.98682 22.1734V22.168C1.98682 21.5764 2.22181 21.0091 2.64011 20.5908C3.0584 20.1725 3.62573 19.9375 4.21728 19.9375C4.24228 19.9375 4.26728 19.9375 4.29541 19.9375C4.40822 19.9403 4.5206 19.9526 4.63135 19.9742C4.6376 19.9742 4.64463 19.9742 4.65166 19.9742C4.66961 19.973 4.68762 19.973 4.70557 19.9742C4.70557 19.9883 4.70557 20.0156 4.70557 20.0297C4.6991 20.5636 4.88812 21.0814 5.23701 21.4856C5.58591 21.8898 6.07058 22.1524 6.5997 22.224C7.12882 22.2955 7.66584 22.1711 8.10957 21.8741C8.5533 21.5772 8.8731 21.1281 9.00869 20.6117L8.99932 20.6148Z"
        fill="currentColor" />
    <path
        d="M9.03737 20.0327C9.0373 20.2274 9.02451 20.4218 8.99909 20.6147C8.86349 21.1312 8.5437 21.5802 8.09997 21.8772C7.65624 22.1741 7.11921 22.2985 6.59009 22.227C6.06098 22.1554 5.5763 21.8928 5.22741 21.4886C4.87851 21.0844 4.68949 20.5666 4.69596 20.0327C4.69596 20.0187 4.69596 20.0054 4.69596 19.9905V19.9772C5.26703 19.9774 5.81553 19.7543 6.22427 19.3554C6.63302 18.9566 6.86959 18.4138 6.88346 17.8429C6.88463 17.8241 6.88463 17.8054 6.88346 17.7866C6.88366 17.3263 6.73864 16.8776 6.46904 16.5045C6.19944 16.1314 5.81901 15.8528 5.3819 15.7085C6.30555 15.8648 7.15493 16.3126 7.80579 16.9864C8.45664 17.6602 8.8748 18.5245 8.99909 19.453C9.02445 19.6452 9.03724 19.8389 9.03737 20.0327Z"
        fill="currentColor" />
    <path
        d="M6.88662 17.7872C6.88779 17.8059 6.88779 17.8247 6.88662 17.8434C6.87275 18.4143 6.63618 18.9572 6.22743 19.356C5.81869 19.7548 5.27019 19.9779 4.69912 19.9778H4.64522C4.6313 19.4157 4.40149 18.8806 4.00348 18.4834C3.60547 18.0863 3.06983 17.8576 2.50771 17.845C2.49053 17.845 2.47178 17.845 2.45459 17.845C1.87443 17.845 1.31803 18.0754 0.907794 18.4857C0.497558 18.8959 0.26709 19.4523 0.26709 20.0325C0.267311 19.3943 0.406727 18.7639 0.675616 18.1852C0.944505 17.6065 1.3364 17.0934 1.82396 16.6817C2.31152 16.27 2.88302 15.9696 3.4986 15.8015C4.11419 15.6334 4.75904 15.6016 5.38818 15.7082C5.82484 15.8532 6.20468 16.1321 6.4737 16.5053C6.74271 16.8785 6.8872 17.3271 6.88662 17.7872Z"
        fill="currentColor" />
    <path
        d="M18.5741 15.0972C17.5303 15.6151 16.578 16.1565 15.9639 16.6597C13.849 16.8049 11.745 17.0804 9.66392 17.4847C9.47815 17.5149 9.28789 17.4717 9.13345 17.3641C8.97901 17.2565 8.87254 17.093 8.83658 16.9082C8.80063 16.7235 8.83801 16.532 8.94082 16.3743C9.04364 16.2166 9.20379 16.1052 9.38736 16.0636C12.4157 15.475 15.4896 15.1516 18.5741 15.0972Z"
        fill="currentColor" />
    <path
        d="M31.0939 17.1096C31.0598 17.2709 30.9714 17.4157 30.8435 17.5198C30.7155 17.6238 30.5557 17.6809 30.3908 17.6814C30.3399 17.6817 30.2891 17.6765 30.2393 17.6658C26.7169 16.916 23.1257 16.5374 19.5244 16.5361H19.5041C18.3244 16.5361 17.145 16.5768 15.9658 16.658C16.5799 16.1572 17.5283 15.6158 18.576 15.0955C18.8854 15.0903 19.1947 15.0874 19.5041 15.0869H19.5252C23.2276 15.0878 26.9197 15.4772 30.5408 16.2486C30.6337 16.2687 30.7218 16.307 30.7999 16.3611C30.878 16.4153 30.9446 16.4844 30.996 16.5643C31.0474 16.6443 31.0825 16.7336 31.0993 16.8272C31.1161 16.9208 31.1143 17.0167 31.0939 17.1096Z"
        fill="currentColor" />
    <path
        d="M29.3752 20.5572H10.5838C10.3919 20.5572 10.2079 20.481 10.0722 20.3453C9.93657 20.2097 9.86035 20.0257 9.86035 19.8338C9.86035 19.6419 9.93657 19.4579 10.0722 19.3222C10.2079 19.1866 10.3919 19.1104 10.5838 19.1104H29.3752C29.5671 19.1104 29.7511 19.1866 29.8867 19.3222C30.0224 19.4579 30.0986 19.6419 30.0986 19.8338C30.0986 20.0257 30.0224 20.2097 29.8867 20.3453C29.7511 20.481 29.5671 20.5572 29.3752 20.5572Z"
        fill="currentColor" />
    <path
        d="M15.1392 11.4609C13.5954 11.9531 12.4509 12.8242 12.2157 13.6336C10.7141 14.0896 9.25846 14.6854 7.86806 15.4133C7.69816 15.5026 7.49974 15.5207 7.31645 15.4637C7.13316 15.4067 6.98002 15.2793 6.89072 15.1094C6.80142 14.9395 6.78326 14.7411 6.84026 14.5578C6.89725 14.3745 7.02472 14.2213 7.19463 14.132C9.68621 12.8302 12.3672 11.9288 15.1392 11.4609Z"
        fill="currentColor" />
    <path
        d="M32.7889 15.3431C32.7434 15.4266 32.6819 15.5003 32.6079 15.56C32.5339 15.6196 32.4488 15.6641 32.3575 15.6907C32.2662 15.7174 32.1706 15.7257 32.0761 15.7153C31.9816 15.7048 31.8901 15.6757 31.8068 15.6298C29.9986 14.6411 28.0755 13.8786 26.0811 13.3595C26.4791 13.3108 26.8729 13.2325 27.2592 13.1251C27.7241 12.9987 28.1763 12.8295 28.61 12.6196C29.9514 13.0942 31.2523 13.6766 32.4998 14.361C32.6683 14.453 32.7934 14.6081 32.8476 14.7922C32.9018 14.9764 32.8807 15.1745 32.7889 15.3431Z"
        fill="currentColor" />
    <path
        d="M28.6103 12.6215C28.1765 12.8305 27.7243 12.9989 27.2595 13.1246C26.8732 13.232 26.4794 13.3103 26.0813 13.359C25.1554 13.1162 24.2164 12.9266 23.2688 12.791C22.0907 12.6221 20.9021 12.5362 19.7118 12.534C19.5071 12.534 19.3006 12.5358 19.0923 12.5394C16.7613 12.5868 14.4479 12.9548 12.2173 13.6332C12.4517 12.8238 13.597 11.9527 15.1407 11.4605C16.1048 11.2972 17.0771 11.1871 18.0532 11.1308C18.3855 11.1105 18.7225 11.097 19.0642 11.0902C22.3128 11.0203 25.5472 11.5391 28.611 12.6215H28.6103Z"
        fill="currentColor" />
    <path
        d="M18.5741 24.7656C17.5303 24.2476 16.578 23.707 15.9639 23.2031C13.849 23.0575 11.745 22.782 9.66392 22.3781C9.47815 22.3478 9.28789 22.3911 9.13345 22.4987C8.97901 22.6063 8.87254 22.7698 8.83658 22.9545C8.80063 23.1393 8.83801 23.3308 8.94082 23.4885C9.04364 23.6461 9.20379 23.7576 9.38736 23.7992C12.4157 24.3878 15.4896 24.7111 18.5741 24.7656Z"
        fill="currentColor" />
    <path
        d="M31.0939 22.7506C31.0598 22.5892 30.9714 22.4444 30.8435 22.3404C30.7155 22.2363 30.5557 22.1793 30.3908 22.1787C30.3399 22.1786 30.2892 22.1836 30.2393 22.1936C26.717 22.9441 23.1257 23.3228 19.5244 23.3232H19.5041C18.3244 23.3232 17.145 23.2829 15.9658 23.2021C16.5799 23.7029 17.5283 24.2436 18.576 24.7646C18.8854 24.7709 19.1947 24.7738 19.5041 24.7732H19.5252C23.2276 24.7726 26.9197 24.3835 30.5408 23.6123C30.6338 23.5922 30.7219 23.554 30.8001 23.4997C30.8783 23.4455 30.9449 23.3764 30.9963 23.2963C31.0477 23.2163 31.0828 23.1268 31.0996 23.0332C31.1163 22.9395 31.1144 22.8435 31.0939 22.7506Z"
        fill="currentColor" />
    <path
        d="M15.1391 28.399C13.5954 27.9068 12.4509 27.0357 12.2157 26.2263C10.714 25.7703 9.25844 25.1745 7.86805 24.4467C7.69853 24.3602 7.50177 24.344 7.3204 24.4016C7.13902 24.4592 6.98765 24.5859 6.89907 24.7544C6.81049 24.9228 6.79184 25.1193 6.84716 25.3014C6.90248 25.4835 7.02731 25.6364 7.19461 25.7271C9.68613 27.0292 12.3671 27.9309 15.1391 28.399Z"
        fill="currentColor" />
    <path
        d="M32.7889 24.5172C32.7266 24.4031 32.6348 24.3079 32.523 24.2417C32.4112 24.1754 32.2837 24.1405 32.1537 24.1406C32.0323 24.1406 31.9129 24.1715 31.8068 24.2305C29.9987 25.22 28.0756 25.9833 26.0811 26.5031C26.479 26.5498 26.8728 26.6266 27.2592 26.7328C27.7241 26.8592 28.1763 27.0284 28.61 27.2383C29.9512 26.7641 31.2521 26.1826 32.4998 25.4992C32.6683 25.4073 32.7934 25.2522 32.8476 25.068C32.9018 24.8839 32.8807 24.6858 32.7889 24.5172Z"
        fill="currentColor" />
    <path
        d="M28.6103 27.2379C28.1766 27.028 27.7244 26.8588 27.2595 26.7324C26.8731 26.6262 26.4793 26.5495 26.0813 26.5027C25.1553 26.7448 24.2163 26.9342 23.2688 27.0699C22.0906 27.2388 20.9021 27.3249 19.7118 27.3277C19.5071 27.3277 19.3006 27.3259 19.0923 27.3223C16.7613 27.2742 14.4481 26.9062 12.2173 26.2285C12.4517 27.0379 13.597 27.909 15.1407 28.4012C16.1048 28.5645 17.0771 28.6746 18.0532 28.7309C18.3855 28.7512 18.7225 28.7647 19.0642 28.7715C20.4777 28.8014 21.8914 28.7204 23.2923 28.5293C25.1044 28.2817 26.8864 27.849 28.6103 27.2379Z"
        fill="currentColor" />
    <path
        d="M37.5844 22.1539C37.2216 22.154 36.8645 22.0638 36.5453 21.8916C36.226 21.7193 35.9546 21.4704 35.7555 21.1672L34.1305 22.4734V20.6492H31.0156C31.1435 21.4567 31.4944 22.2125 32.0287 22.8313C32.563 23.4501 33.2596 23.9074 34.0398 24.1516C34.3184 24.2375 34.6046 24.2962 34.8945 24.3266C35.0422 24.3406 35.1922 24.3484 35.343 24.3484C36.4062 24.3498 37.4337 23.9652 38.2347 23.266C39.0356 22.5668 39.5555 21.6005 39.6977 20.5469C39.5695 21.0089 39.2935 21.4163 38.9118 21.7065C38.5302 21.9968 38.0639 22.1539 37.5844 22.1539Z"
        fill="currentColor" />
    <path
        d="M39.7358 19.9635C39.7357 20.1579 39.723 20.352 39.6976 20.5447C39.5872 20.9518 39.3616 21.3184 39.0478 21.6002C38.7339 21.882 38.3453 22.067 37.9287 22.1331C37.5122 22.1991 37.0854 22.1433 36.6998 21.9724C36.3142 21.8015 35.9862 21.5227 35.7554 21.1697L37.3804 19.8619L36.8015 19.3932C37.0394 19.1942 37.2322 18.9467 37.367 18.6673C37.5017 18.3879 37.5752 18.083 37.5827 17.7729C37.5827 17.7533 37.5827 17.7346 37.5827 17.7158C37.583 17.2556 37.4381 16.807 37.1686 16.4339C36.8992 16.0608 36.5189 15.7822 36.0819 15.6377C37.0048 15.7945 37.8533 16.2424 38.5035 16.9158C39.1537 17.5892 39.5716 18.4529 39.696 19.3807C39.722 19.5739 39.7353 19.7685 39.7358 19.9635Z"
        fill="currentColor" />
    <path
        d="M36.0837 15.6381C34.9641 15.448 33.8144 15.6995 32.8762 16.3395C31.9381 16.9795 31.2847 17.9583 31.0532 19.0701H34.1306V17.2451L35.7556 18.5521L36.8017 19.3935C37.0396 19.1946 37.2324 18.9471 37.3672 18.6677C37.5019 18.3883 37.5754 18.0833 37.5829 17.7732C37.5829 17.7537 37.5829 17.7349 37.5829 17.7162C37.5833 17.2561 37.4386 16.8077 37.1694 16.4346C36.9003 16.0615 36.5204 15.7828 36.0837 15.6381Z"
        fill="currentColor" />
</svg>
    